<?xml version="1.0" encoding="UTF-8" standalone="no"?>
<!DOCTYPE svg PUBLIC "-//W3C//DTD SVG 20010904//EN"
              "http://www.w3.org/TR/2001/REC-SVG-20010904/DTD/svg10.dtd">

<svg xmlns="http://www.w3.org/2000/svg"
     width="54.2328mm" height="44.709mm"
     viewBox="0 0 205 169">
  <path id="Path"
        fill="none" stroke="black" stroke-width="1"
        d="M 50.09,117.83
           C 50.09,117.83 50.09,116.00 50.09,116.00
             50.09,116.00 54.77,116.00 54.77,116.00
             54.77,116.00 54.77,120.31 54.77,120.31
             54.30,120.75 53.64,121.14 52.78,121.48
             51.93,121.83 51.05,122.00 50.17,122.00
             49.05,122.00 48.07,121.77 47.23,121.30
             46.40,120.83 45.77,120.16 45.34,119.30
             44.93,118.43 44.72,117.49 44.72,116.47
             44.72,115.36 44.95,114.37 45.42,113.52
             45.89,112.65 46.58,111.98 47.48,111.52
             48.17,111.17 49.02,111.00 50.05,111.00
             51.38,111.00 52.42,111.28 53.17,111.83
             53.92,112.37 54.41,113.12 54.62,114.09
             54.62,114.09 52.47,114.48 52.47,114.48
             52.31,113.98 52.02,113.59 51.61,113.30
             51.19,113.01 50.67,112.86 50.05,112.86
             49.10,112.86 48.34,113.16 47.78,113.75
             47.23,114.34 46.95,115.21 46.95,116.38
             46.95,117.62 47.23,118.56 47.80,119.19
             48.37,119.81 49.11,120.12 50.03,120.12
             50.48,120.12 50.93,120.04 51.39,119.86
             51.85,119.67 52.24,119.45 52.56,119.20
             52.56,119.20 52.56,117.83 52.56,117.83
             52.56,117.83 50.09,117.83 50.09,117.83 Z
           M 57.09,122.00
           C 57.09,122.00 57.09,111.00 57.09,111.00
             57.09,111.00 65.05,111.00 65.05,111.00
             65.05,111.00 65.05,112.83 65.05,112.83
             65.05,112.83 59.27,112.83 59.27,112.83
             59.27,112.83 59.27,115.19 59.27,115.19
             59.27,115.19 64.66,115.19 64.66,115.19
             64.66,115.19 64.66,117.00 64.66,117.00
             64.66,117.00 59.27,117.00 59.27,117.00
             59.27,117.00 59.27,120.19 59.27,120.19
             59.27,120.19 65.27,120.19 65.27,120.19
             65.27,120.19 65.27,122.00 65.27,122.00
             65.27,122.00 57.09,122.00 57.09,122.00 Z
           M 66.66,116.56
           C 66.66,115.48 66.82,114.57 67.14,113.83
             67.39,113.30 67.72,112.82 68.14,112.39
             68.57,111.95 69.03,111.63 69.53,111.42
             70.20,111.14 70.97,111.00 71.84,111.00
             73.43,111.00 74.69,111.49 75.64,112.47
             76.59,113.44 77.06,114.78 77.06,116.50
             77.06,118.23 76.59,119.58 75.64,120.55
             74.70,121.52 73.45,122.00 71.88,122.00
             70.28,122.00 69.01,121.52 68.06,120.56
             67.12,119.59 66.66,118.26 66.66,116.56 Z
           M 68.89,116.48
           C 68.89,117.68 69.17,118.59 69.73,119.20
             70.30,119.82 71.00,120.12 71.86,120.12
             72.72,120.12 73.43,119.82 73.98,119.22
             74.55,118.61 74.83,117.69 74.83,116.47
             74.83,115.25 74.55,114.34 74.02,113.75
             73.47,113.16 72.75,112.86 71.86,112.86
             70.97,112.86 70.25,113.16 69.70,113.77
             69.16,114.37 68.89,115.28 68.89,116.48 Z
           M 83.06,122.00
           C 83.06,122.00 83.06,111.00 83.06,111.00
             83.06,111.00 86.31,111.00 86.31,111.00
             86.31,111.00 88.25,118.50 88.25,118.50
             88.25,118.50 90.19,111.00 90.19,111.00
             90.19,111.00 93.44,111.00 93.44,111.00
             93.44,111.00 93.44,122.00 93.44,122.00
             93.44,122.00 91.42,122.00 91.42,122.00
             91.42,122.00 91.42,113.34 91.42,113.34
             91.42,113.34 89.28,122.00 89.28,122.00
             89.28,122.00 87.20,122.00 87.20,122.00
             87.20,122.00 85.08,113.34 85.08,113.34
             85.08,113.34 85.08,122.00 85.08,122.00
             85.08,122.00 83.06,122.00 83.06,122.00 Z
           M 95.03,122.00
           C 95.03,122.00 95.03,111.00 95.03,111.00
             95.03,111.00 97.19,111.00 97.19,111.00
             97.19,111.00 97.19,122.00 97.19,122.00
             97.19,122.00 95.03,122.00 95.03,122.00 Z
           M 99.11,122.00
           C 99.11,122.00 99.11,111.00 99.11,111.00
             99.11,111.00 101.22,111.00 101.22,111.00
             101.22,111.00 105.62,118.34 105.62,118.34
             105.62,118.34 105.62,111.00 105.62,111.00
             105.62,111.00 107.62,111.00 107.62,111.00
             107.62,111.00 107.62,122.00 107.62,122.00
             107.62,122.00 105.45,122.00 105.45,122.00
             105.45,122.00 101.12,114.83 101.12,114.83
             101.12,114.83 101.12,122.00 101.12,122.00
             101.12,122.00 99.11,122.00 99.11,122.00 Z
           M 110.09,122.00
           C 110.09,122.00 110.09,111.00 110.09,111.00
             110.09,111.00 118.05,111.00 118.05,111.00
             118.05,111.00 118.05,112.83 118.05,112.83
             118.05,112.83 112.27,112.83 112.27,112.83
             112.27,112.83 112.27,115.19 112.27,115.19
             112.27,115.19 117.66,115.19 117.66,115.19
             117.66,115.19 117.66,117.00 117.66,117.00
             117.66,117.00 112.27,117.00 112.27,117.00
             112.27,117.00 112.27,120.19 112.27,120.19
             112.27,120.19 118.27,120.19 118.27,120.19
             118.27,120.19 118.27,122.00 118.27,122.00
             118.27,122.00 110.09,122.00 110.09,122.00 Z
           M 120.09,122.00
           C 120.09,122.00 120.09,111.00 120.09,111.00
             120.09,111.00 124.66,111.00 124.66,111.00
             125.81,111.00 126.64,111.11 127.16,111.31
             127.68,111.52 128.09,111.89 128.41,112.42
             128.72,112.95 128.88,113.56 128.88,114.25
             128.88,115.12 128.63,115.84 128.16,116.41
             127.69,116.97 126.98,117.32 126.05,117.47
             126.52,117.73 126.90,118.02 127.20,118.34
             127.52,118.66 127.93,119.21 128.44,120.00
             128.44,120.00 129.75,122.00 129.75,122.00
             129.75,122.00 127.16,122.00 127.16,122.00
             127.16,122.00 125.59,119.78 125.59,119.78
             125.03,118.98 124.64,118.48 124.44,118.27
             124.24,118.06 124.02,117.92 123.80,117.84
             123.57,117.76 123.20,117.72 122.70,117.72
             122.70,117.72 122.27,117.72 122.27,117.72
             122.27,117.72 122.27,122.00 122.27,122.00
             122.27,122.00 120.09,122.00 120.09,122.00 Z
           M 122.27,116.00
           C 122.27,116.00 123.88,116.00 123.88,116.00
             124.91,116.00 125.56,115.95 125.81,115.84
             126.07,115.74 126.27,115.57 126.42,115.33
             126.57,115.08 126.64,114.77 126.64,114.39
             126.64,113.96 126.54,113.62 126.34,113.36
             126.16,113.10 125.89,112.93 125.55,112.86
             125.37,112.84 124.84,112.83 123.95,112.83
             123.95,112.83 122.27,112.83 122.27,112.83
             122.27,112.83 122.27,116.00 122.27,116.00 Z
           M 140.78,122.00
           C 140.78,122.00 138.42,122.00 138.42,122.00
             138.42,122.00 137.48,119.81 137.48,119.81
             137.48,119.81 133.19,119.81 133.19,119.81
             133.19,119.81 132.30,122.00 132.30,122.00
             132.30,122.00 130.00,122.00 130.00,122.00
             130.00,122.00 134.19,111.00 134.19,111.00
             134.19,111.00 136.47,111.00 136.47,111.00
             136.47,111.00 140.78,122.00 140.78,122.00 Z
           M 136.78,118.00
           C 136.78,118.00 135.30,113.70 135.30,113.70
             135.30,113.70 133.86,118.00 133.86,118.00
             133.86,118.00 136.78,118.00 136.78,118.00 Z
           M 142.16,122.00
           C 142.16,122.00 142.16,111.00 142.16,111.00
             142.16,111.00 144.31,111.00 144.31,111.00
             144.31,111.00 144.31,120.19 144.31,120.19
             144.31,120.19 149.70,120.19 149.70,120.19
             149.70,120.19 149.70,122.00 149.70,122.00
             149.70,122.00 142.16,122.00 142.16,122.00 Z
           M 150.55,118.34
           C 150.55,118.34 152.66,118.14 152.66,118.14
             152.78,118.83 153.04,119.34 153.42,119.67
             153.80,120.00 154.33,120.16 155.00,120.16
             155.70,120.16 156.22,120.01 156.58,119.72
             156.93,119.43 157.11,119.09 157.11,118.70
             157.11,118.45 157.03,118.24 156.88,118.06
             156.73,117.89 156.47,117.73 156.09,117.59
             155.84,117.51 155.27,117.36 154.36,117.14
             153.20,116.85 152.39,116.50 151.92,116.09
             151.27,115.51 150.94,114.80 150.94,113.95
             150.94,113.41 151.09,112.91 151.39,112.44
             151.70,111.97 152.15,111.62 152.73,111.38
             153.32,111.12 154.02,111.00 154.84,111.00
             156.20,111.00 157.21,111.30 157.89,111.91
             158.57,112.50 158.93,113.30 158.97,114.30
             158.97,114.30 156.80,114.30 156.80,114.30
             156.70,113.77 156.50,113.39 156.20,113.16
             155.90,112.92 155.44,112.80 154.83,112.80
             154.19,112.80 153.70,112.93 153.34,113.19
             153.11,113.36 153.00,113.57 153.00,113.84
             153.00,114.09 153.11,114.31 153.33,114.48
             153.60,114.73 154.26,114.97 155.31,115.22
             156.38,115.46 157.16,115.71 157.66,115.97
             158.16,116.23 158.56,116.59 158.84,117.05
             159.12,117.50 159.27,118.06 159.27,118.73
             159.27,119.34 159.09,119.91 158.75,120.44
             158.41,120.97 157.94,121.37 157.31,121.62
             156.69,121.88 155.91,122.00 154.97,122.00
             153.61,122.00 152.57,121.69 151.84,121.06
             151.11,120.44 150.68,119.53 150.55,118.34 Z" />
  <path id="Unnamed #2"
        fill="none" stroke="black" stroke-width="1"
        d="M 66.01,90.82
           C 66.01,90.82 66.11,35.87 66.11,35.87
             66.11,35.87 96.90,51.08 96.90,51.08
             96.90,51.08 93.67,53.47 93.67,53.47
             93.67,53.47 69.98,42.13 69.98,42.13
             69.98,42.13 69.89,90.91 69.89,90.91
             69.89,90.91 66.01,90.82 66.01,90.82 Z
           M 97.08,76.89
           C 97.08,76.89 127.05,77.08 127.05,77.08
             127.05,77.08 126.59,90.91 126.59,90.91
             126.59,90.91 102.89,101.97 102.89,101.97
             102.89,101.97 99.85,101.97 99.85,101.97
             99.85,101.97 75.88,90.91 75.88,90.91
             75.88,90.91 76.06,66.01 76.06,66.01
             76.06,66.01 135.90,36.88 135.90,36.88
             135.90,36.88 135.90,91.00 135.90,91.00
             135.90,91.00 133.13,90.91 133.13,90.91
             133.13,90.91 132.77,42.23 132.77,42.23
             132.77,42.23 79.75,68.23 79.75,68.23
             79.75,68.23 79.20,87.86 79.20,87.86
             79.20,87.86 99.94,97.91 99.94,97.91
             99.94,97.91 102.89,97.82 102.89,97.82
             102.89,97.82 123.08,89.06 123.08,89.06
             123.08,89.06 122.99,80.86 122.99,80.86
             122.99,80.86 97.08,80.95 97.08,80.95
             97.08,80.95 97.08,76.89 97.08,76.89 Z
           M 122.99,70.90
           C 122.99,70.90 127.05,70.90 127.05,70.90
             127.05,70.90 127.05,66.20 127.05,66.20
             127.05,66.20 109.90,57.07 109.90,57.07
             109.90,57.07 106.03,59.01 106.03,59.01
             106.03,59.01 122.99,68.13 122.99,68.13
             122.99,68.13 122.99,70.90 122.99,70.90 Z" />
</svg>
